<svg xmlns="http://www.w3.org/2000/svg" xmlns:xlink="http://www.w3.org/1999/xlink" width="2048" height="256" viewBox="0 0 2048 256"><g><text x="512" y="176" style="font-family:-apple-systrem,BlinkMacSystremFont,&quot;Segoe UI&quot;,Roboto,Oxygen-Sans,Ubuntu,Cantarell,&quot;Helvetica Neue&quot;,Arial,sans-serif;font-weight:700;font-size:128px;fill:#444;stroke:none">Apple Quicktime®</text><path fill="#444" d="M 260 64 L 260 192 L 430.667 192 L 430.667 64 L 260 64 Z M 292 181.333 L 270.667 181.333 L 270.667 160 L 292 160 L 292 181.333 Z M 292 138.667 L 270.667 138.667 L 270.667 117.333 L 292 117.333 L 292 138.667 Z M 292 96 L 270.667 96 L 270.667 74.667 L 292 74.667 L 292 96 Z M 388 181.333 L 302.667 181.333 L 302.667 74.667 L 388 74.667 L 388 181.333 Z M 420 181.333 L 398.667 181.333 L 398.667 160 L 420 160 L 420 181.333 Z M 420 138.667 L 398.667 138.667 L 398.667 117.333 L 420 117.333 L 420 138.667 Z M 420 96 L 398.667 96 L 398.667 74.667 L 420 74.667 L 420 96 Z M 324 96 L 324 160 L 366.667 128 L 324 96 Z"/></g></svg>